# xmcd
#
# Track frame offsets: 
#        150
#        19119
#        33268
#        52237
#        68461
#        83685
#        103617
#        120014
#        136675
#        154472
#        170111
#        191825
#        211416
#
# Disc length: 3007 seconds
#
# Revision: 2
# Processed by: cddbd v1.5.2PL0 Copyright (c) Steve Scherf et al.
# Submitted via: ExactAudioCopy v0.99pb4
#
DISCID=aa0bbd0d
DTITLE=Michael Powers - Onyx Root
DYEAR=1900
DGENRE=Blues
TTITLE0=Successful Son
TTITLE1=Can't Quit You Baby
TTITLE2=Baby's Got a Train
TTITLE3=She's About a Mover
TTITLE4=Shock
TTITLE5=Country Boy
TTITLE6=Bird on a Wire
TTITLE7=Psychotic Reaction
TTITLE8=Night in Madrid
TTITLE9=Another Man Done
TTITLE10=Graffiti
TTITLE11=All Over Town
TTITLE12=Shimmy Up
EXTD=
EXTT0=
EXTT1=
EXTT2=
EXTT3=
EXTT4=
EXTT5=
EXTT6=
EXTT7=
EXTT8=
EXTT9=
EXTT10=
EXTT11=
EXTT12=
PLAYORDER=
